<svg width="36" height="36" viewBox="0 0 36 36" fill="none" xmlns="http://www.w3.org/2000/svg">
<path d="M0.500002 28V8C0.500002 3.86449 3.86449 0.5 8 0.5L28 0.5C32.1355 0.5 35.5 3.86449 35.5 8V28C35.5 32.1355 32.1355 35.5 28 35.5H8C3.86449 35.5 0.500002 32.1355 0.500002 28Z" fill="#E6EEDD"/>
<path d="M35 8C35 4.14019 31.8598 1 28 1L8 1C4.14019 1 1 4.14019 1 8V28C1 31.8598 4.14019 35 8 35H28C31.8598 35 35 31.8598 35 28V8ZM36 8V28C36 32.4183 32.4183 36 28 36H8C3.58172 36 2.14577e-06 32.4183 2.14577e-06 28V8C2.14577e-06 3.58172 3.58172 0 8 0L28 0C32.4183 0 36 3.58172 36 8Z" fill="#EEEEEE"/>
<path fill-rule="evenodd" clip-rule="evenodd" d="M13.293 15.293C13.4805 15.1055 13.7348 15.0002 14 15.0002C14.2651 15.0002 14.5195 15.1055 14.707 15.293L18 18.586L21.293 15.293C21.3852 15.1974 21.4956 15.1213 21.6176 15.0689C21.7396 15.0164 21.8708 14.9889 22.0036 14.9877C22.1364 14.9866 22.268 15.0119 22.3909 15.0621C22.5138 15.1124 22.6255 15.1867 22.7194 15.2806C22.8133 15.3745 22.8875 15.4861 22.9378 15.609C22.9881 15.7319 23.0134 15.8636 23.0122 15.9964C23.0111 16.1291 22.9835 16.2604 22.9311 16.3824C22.8787 16.5044 22.8025 16.6147 22.707 16.707L18.707 20.707C18.5195 20.8944 18.2651 20.9997 18 20.9997C17.7348 20.9997 17.4805 20.8944 17.293 20.707L13.293 16.707C13.1055 16.5194 13.0002 16.2651 13.0002 16C13.0002 15.7348 13.1055 15.4805 13.293 15.293Z" fill="#919191"/>
</svg>
