<svg width="24" height="24" viewBox="0 0 24 24" fill="none" xmlns="http://www.w3.org/2000/svg">
<path d="M3 7C3 6.44772 3.40294 6 3.9 6H20.1C20.5971 6 21 6.44772 21 7C21 7.55228 20.5971 8 20.1 8H3.9C3.40294 8 3 7.55228 3 7Z" fill="#0F172A"/>
<path d="M3 12C3 11.4477 3.40294 11 3.9 11H20.1C20.5971 11 21 11.4477 21 12C21 12.5523 20.5971 13 20.1 13H3.9C3.40294 13 3 12.5523 3 12Z" fill="#0F172A"/>
<path d="M3.9 16C3.40294 16 3 16.4477 3 17C3 17.5523 3.40294 18 3.9 18H20.1C20.5971 18 21 17.5523 21 17C21 16.4477 20.5971 16 20.1 16H3.9Z" fill="#0F172A"/>
</svg>
